<svg width="103" height="40" viewBox="0 0 103 40" fill="none" xmlns="http://www.w3.org/2000/svg">
<path fill-rule="evenodd" clip-rule="evenodd" d="M8.08156 17.6255C8.40779 17.6086 8.73623 17.6 9.06668 17.6C14.2892 17.6 19.0107 19.7447 22.3987 23.2013L22.256 23.344C25.92 20.1172 30.8989 18.1333 36.3837 18.1333C37.5554 18.1333 38.7039 18.2239 39.8215 18.3977C39.9391 17.6156 40 16.8149 40 16C40 7.16344 32.8366 0 24 0C15.1634 0 8 7.16344 8 16C8 16.5487 8.02762 17.091 8.08156 17.6255Z" fill="#A93926"/>
<path fill-rule="evenodd" clip-rule="evenodd" d="M0.00140249 17.1998C-0.0312261 16.5379 0.509786 16 1.1733 16C1.83682 16 2.37124 16.5382 2.40751 17.1999C2.43647 17.7282 2.48443 18.2513 2.55072 18.7688C4.57931 18.0131 6.77476 17.6 9.06668 17.6C14.2892 17.6 19.0107 19.7447 22.3987 23.2013L22.256 23.344C25.92 20.1172 30.8989 18.1333 36.3837 18.1333C39.5642 18.1333 42.5746 18.8004 45.2571 19.9901C45.4274 19.0789 45.5405 18.1475 45.5925 17.2C45.6288 16.5382 46.1632 16 46.8267 16C47.4902 16 48.0312 16.5379 47.9986 17.1998C47.3727 29.8973 36.8675 40 24 40C11.1324 40 0.627287 29.8972 0.00140249 17.1998ZM45.029 21.0587C42.4343 19.8706 39.5002 19.2 36.3837 19.2C25.7757 19.2 17.2807 26.9696 17.0903 36.4739C17.6868 36.6747 18.2948 36.8501 18.9132 36.9991C18.9124 36.9328 18.9119 36.8664 18.9119 36.8C18.9119 27.9634 26.7343 20.8 36.3837 20.8C39.3443 20.8 42.1329 21.4743 44.5764 22.6644C44.7472 22.1378 44.8984 21.6022 45.029 21.0587ZM44.2187 23.6794C41.8977 22.525 39.2312 21.8667 36.3837 21.8667C27.2629 21.8667 19.9991 28.6207 19.9991 36.8C19.9991 36.9446 20.0013 37.0887 20.0058 37.2323C20.6099 37.345 21.2227 37.4326 21.8433 37.4939C21.8304 37.2641 21.8239 37.0328 21.8239 36.8C21.8239 29.4362 28.3426 23.4667 36.3837 23.4667C38.9974 23.4667 41.4502 24.0973 43.5706 25.2015C43.8053 24.7043 44.0217 24.1966 44.2187 23.6794ZM43.0902 26.1567C41.1223 25.1256 38.8357 24.5333 36.3837 24.5333C28.8711 24.5333 22.911 30.0934 22.911 36.8C22.911 37.0599 22.92 37.3182 22.9376 37.5744C23.2896 37.5914 23.6438 37.6 24 37.6C24.2567 37.6 24.5124 37.5955 24.767 37.5867C24.7463 37.3269 24.7358 37.0646 24.7358 36.8C24.7358 30.909 29.9508 26.1333 36.3837 26.1333C38.5247 26.1333 40.5309 26.6623 42.2547 27.5854C42.5508 27.121 42.8296 26.6444 43.0902 26.1567ZM41.6545 28.4773C40.1103 27.6665 38.3137 27.2 36.3837 27.2C30.4793 27.2 25.823 31.5662 25.823 36.8C25.823 37.0426 25.833 37.2833 25.8526 37.5218C26.464 37.47 27.0682 37.3928 27.664 37.2912C27.6533 37.1288 27.6478 36.965 27.6478 36.8C27.6478 32.3817 31.559 28.8 36.3837 28.8C37.9253 28.8 39.3736 29.1657 40.6309 29.8074C40.9888 29.3778 41.3303 28.9341 41.6545 28.4773ZM39.901 30.6395C38.8541 30.1469 37.6606 29.8667 36.3837 29.8667C32.0876 29.8667 28.735 33.0389 28.735 36.8C28.735 36.8935 28.737 36.9866 28.7411 37.0793C29.3593 36.9412 29.9674 36.7766 30.5643 36.5869C30.6864 33.7402 33.2451 31.4667 36.3837 31.4667C37.1884 31.4667 37.955 31.6161 38.6522 31.8864C39.0852 31.4878 39.5018 31.0718 39.901 30.6395ZM37.7136 32.7022C37.2943 32.5925 36.8485 32.5333 36.3837 32.5333C33.9371 32.5333 32.0199 34.1724 31.6954 36.1924C33.8962 35.3551 35.9248 34.1692 37.7136 32.7022ZM15.9974 36.0728C15.8947 32.3333 12.831 29.3333 9.06668 29.3333C8.41651 29.3333 7.78724 29.4228 7.19052 29.5902C7.57855 30.0684 7.98662 30.5298 8.41346 30.9729C8.62754 30.9468 8.84554 30.9333 9.06668 30.9333C11.6886 30.9333 13.8686 32.8253 14.316 35.3185C14.8636 35.5928 15.4244 35.8447 15.9974 36.0728ZM9.49561 32.0213C11.0735 32.1788 12.3981 33.1959 12.9945 34.5976C11.7413 33.8561 10.5694 32.9918 9.49561 32.0213ZM6.49713 28.6883C7.30362 28.4149 8.16784 28.2667 9.06668 28.2667C12.3511 28.2667 15.1733 30.246 16.4054 33.0768C16.5687 32.3381 16.7796 31.6152 17.0351 30.911C15.3109 28.3508 12.3855 26.6667 9.06668 26.6667C7.83624 26.6667 6.65987 26.8982 5.57874 27.3199C5.86777 27.7882 6.1742 28.2446 6.49713 28.6883ZM5.03525 26.3881C6.27901 25.88 7.64014 25.6 9.06668 25.6C12.5008 25.6 15.5558 27.2228 17.5068 29.7434C17.7442 29.2114 18.0076 28.6917 18.2956 28.1856C16.0472 25.62 12.7461 24 9.06668 24C7.38174 24 5.77615 24.3397 4.31466 24.9544C4.53748 25.4423 4.77795 25.9205 5.03525 26.3881ZM3.8957 23.9731C5.48581 23.3035 7.23302 22.9333 9.06668 22.9333C12.9464 22.9333 16.439 24.5903 18.8755 27.2353C19.1722 26.7809 19.4893 26.339 19.8258 25.9107C17.1091 23.089 13.2929 21.3333 9.06668 21.3333C7.04527 21.3333 5.11766 21.735 3.35931 22.4628C3.51981 22.9747 3.69887 23.4784 3.8957 23.9731ZM3.06396 21.4308C4.91756 20.6801 6.94384 20.2667 9.06668 20.2667C13.5523 20.2667 17.6069 22.1126 20.5121 25.0862C20.8639 24.6869 21.2333 24.3012 21.6193 23.93C18.4262 20.6814 13.9817 18.6667 9.06668 18.6667C6.82777 18.6667 4.68651 19.0847 2.71668 19.847C2.81298 20.3821 2.929 20.9102 3.06396 21.4308Z" fill="#1C1C1C"/>
<path d="M57.9816 13.488C57.6296 13.168 57.4056 12.784 57.3096 12.336C57.2562 12.1333 57.1922 11.9253 57.1176 11.712C57.0216 11.4347 56.8509 11.3013 56.6056 11.312C56.4776 11.3227 56.3656 11.3653 56.2696 11.44C56.1842 11.504 56.1149 11.5947 56.0616 11.712C56.0402 11.7653 56.0242 11.8133 56.0136 11.856C56.0136 11.8987 56.0082 11.9467 55.9976 12C55.9869 12.0853 55.9816 12.176 55.9816 12.272C55.9922 12.3573 55.9922 12.4427 55.9816 12.528V13.536C55.9922 13.6213 55.9816 13.696 55.9496 13.76C55.9176 13.824 55.8749 13.888 55.8216 13.952C55.7576 14.048 55.6669 14.096 55.5496 14.096C55.3682 14.096 55.1922 14.096 55.0216 14.096C54.8616 14.1067 54.6909 14.1067 54.5096 14.096C54.3069 14.096 54.1522 14.0213 54.0456 13.872L53.9496 13.76C53.8322 13.6853 53.7522 13.5947 53.7096 13.488C53.6776 13.3813 53.6509 13.2693 53.6296 13.152C53.5976 12.9067 53.5869 12.6827 53.5976 12.48L53.6296 10.288H53.6456V8.176C53.6456 8.09067 53.6456 8.00533 53.6456 7.92C53.6562 7.824 53.6616 7.73333 53.6616 7.648C53.6616 7.59467 53.6616 7.54133 53.6616 7.488C53.6722 7.424 53.6722 7.36533 53.6616 7.312C53.6189 6.992 53.6029 6.66667 53.6136 6.336C53.6242 6.00533 53.6242 5.67467 53.6136 5.344C53.6029 5.12 53.5976 4.896 53.5976 4.672C53.6082 4.448 53.6082 4.21867 53.5976 3.984C53.5976 3.87733 53.6242 3.75467 53.6776 3.616C53.7736 3.33867 53.9602 3.168 54.2376 3.104C54.3869 3.08267 54.5309 3.06133 54.6696 3.04C54.8189 3.01867 54.9682 3.008 55.1176 3.008C55.2349 3.008 55.3416 3.008 55.4376 3.008C55.5442 3.008 55.6509 3.00267 55.7576 2.992C56.0242 2.97067 56.2856 2.96533 56.5416 2.976C56.7976 2.976 57.0536 2.992 57.3096 3.024C57.3522 3.03467 57.3949 3.04 57.4376 3.04C57.4802 3.04 57.5282 3.04 57.5816 3.04C57.9336 3.04 58.2429 3.12 58.5096 3.28C58.5949 3.33333 58.6856 3.376 58.7816 3.408C58.8776 3.44 58.9736 3.48267 59.0696 3.536C59.2402 3.62133 59.3842 3.728 59.5016 3.856C59.6189 3.97333 59.7309 4.10667 59.8376 4.256C59.9656 4.448 60.0722 4.65067 60.1576 4.864C60.2429 5.07733 60.2962 5.30667 60.3176 5.552C60.3602 5.872 60.3922 6.19733 60.4136 6.528C60.4349 6.848 60.4456 7.17333 60.4456 7.504C60.4349 7.728 60.4082 7.94667 60.3656 8.16C60.3229 8.37333 60.2482 8.58133 60.1416 8.784C60.0562 8.944 59.9709 9.104 59.8856 9.264C59.8109 9.41333 59.7149 9.56267 59.5976 9.712C59.4482 9.904 59.3896 10.1387 59.4216 10.416C59.4856 10.8213 59.6296 11.1733 59.8536 11.472C59.9496 11.6427 60.0936 11.7653 60.2856 11.84C60.4882 11.9147 60.6269 12.0213 60.7016 12.16C60.7762 12.2987 60.8082 12.4693 60.7976 12.672C60.7869 12.8107 60.7816 12.9493 60.7816 13.088C60.7922 13.2267 60.8029 13.3653 60.8136 13.504C60.8136 13.7067 60.7869 13.8827 60.7336 14.032C60.7016 14.1387 60.6269 14.2027 60.5096 14.224C60.3816 14.2453 60.2482 14.2613 60.1096 14.272C59.9816 14.2933 59.8536 14.2933 59.7256 14.272C59.5442 14.24 59.3682 14.2133 59.1976 14.192C59.0269 14.1707 58.8562 14.1173 58.6856 14.032C58.5469 13.968 58.4189 13.888 58.3016 13.792C58.1949 13.696 58.0882 13.5947 57.9816 13.488ZM57.3896 8C57.6456 7.808 57.8109 7.57867 57.8856 7.312C57.9709 7.056 58.0136 6.8 58.0136 6.544C58.0242 6.288 57.9549 6.03733 57.8056 5.792C57.7202 5.664 57.6189 5.568 57.5016 5.504C57.1816 5.35467 56.8669 5.32267 56.5576 5.408C56.3976 5.46133 56.2909 5.54667 56.2376 5.664C56.1736 5.824 56.1202 5.984 56.0776 6.144C56.0349 6.29333 56.0242 6.45867 56.0456 6.64C56.0562 6.69333 56.0562 6.74667 56.0456 6.8C56.0456 6.85333 56.0456 6.90667 56.0456 6.96C56.0456 7.056 56.0456 7.152 56.0456 7.248C56.0562 7.344 56.0562 7.44 56.0456 7.536C56.0242 7.65333 56.0402 7.76 56.0936 7.856C56.1469 7.94133 56.2056 8.02667 56.2696 8.112L56.4136 8.24C56.5096 8.32533 56.5949 8.37333 56.6696 8.384C56.7442 8.39467 56.8402 8.368 56.9576 8.304C57.0322 8.26133 57.1016 8.21333 57.1656 8.16C57.2402 8.10667 57.3149 8.05333 57.3896 8ZM63.3531 14.08C63.2357 14.0587 63.1131 14.0427 62.9851 14.032C62.8677 14.0213 62.7504 14.0107 62.6331 14C62.4837 14 62.3504 13.9733 62.2331 13.92C62.1264 13.856 62.0464 13.7493 61.9931 13.6C61.9397 13.4827 61.8971 13.3707 61.8651 13.264C61.8331 13.1467 61.8224 13.024 61.8331 12.896C61.8331 12.7467 61.8331 12.592 61.8331 12.432C61.8331 12.272 61.8384 12.1173 61.8491 11.968C61.8597 11.7653 61.8651 11.568 61.8651 11.376C61.8757 11.184 61.8704 10.9867 61.8491 10.784C61.8277 10.5707 61.8171 10.3627 61.8171 10.16C61.8171 9.95733 61.8224 9.74933 61.8331 9.536V7.168C61.8331 6.99733 61.8331 6.832 61.8331 6.672C61.8331 6.50133 61.8277 6.336 61.8171 6.176C61.7957 5.96267 61.7797 5.74933 61.7691 5.536C61.7691 5.312 61.7797 5.09333 61.8011 4.88C61.8224 4.784 61.8277 4.688 61.8171 4.592C61.8171 4.496 61.8171 4.4 61.8171 4.304C61.8171 4.208 61.8277 4.112 61.8491 4.016C61.8704 3.90933 61.8971 3.808 61.9291 3.712C62.0677 3.33867 62.3504 3.14133 62.7771 3.12C62.9584 3.10933 63.1451 3.10933 63.3371 3.12C63.5291 3.12 63.7157 3.12 63.8971 3.12C64.0144 3.12 64.1264 3.12 64.2331 3.12C64.3397 3.12 64.4517 3.10933 64.5691 3.088C64.7717 3.06667 64.9531 3.072 65.1131 3.104C65.1664 3.11467 65.2144 3.12 65.2571 3.12C65.2997 3.12 65.3477 3.12 65.4011 3.12L67.6091 3.024H67.8331C68.1104 3.024 68.2971 3.15733 68.3931 3.424C68.3931 3.43467 68.3984 3.44533 68.4091 3.456C68.4624 3.70133 68.4891 3.952 68.4891 4.208C68.4997 4.45333 68.4731 4.69867 68.4091 4.944C68.3664 5.11467 68.2544 5.232 68.0731 5.296C67.9877 5.328 67.8971 5.35467 67.8011 5.376C67.7157 5.39733 67.6251 5.40267 67.5291 5.392C67.2517 5.392 66.9797 5.39733 66.7131 5.408C66.4571 5.408 66.1904 5.392 65.9131 5.36C65.6144 5.328 65.3211 5.35467 65.0331 5.44C64.8731 5.49333 64.7344 5.57333 64.6171 5.68C64.4997 5.78667 64.4304 5.93067 64.4091 6.112C64.3877 6.19733 64.3771 6.27733 64.3771 6.352C64.3877 6.416 64.3984 6.49067 64.4091 6.576C64.4624 6.832 64.6011 6.992 64.8251 7.056C64.9851 7.10933 65.1397 7.15733 65.2891 7.2C65.4491 7.232 65.6144 7.23733 65.7851 7.216C65.9024 7.216 66.0144 7.216 66.1211 7.216C66.2277 7.216 66.3397 7.21067 66.4571 7.2C66.6491 7.2 66.8251 7.22133 66.9851 7.264C67.3264 7.36 67.5024 7.56267 67.5131 7.872C67.5237 8.05333 67.5237 8.23467 67.5131 8.416C67.5131 8.58667 67.5024 8.76267 67.4811 8.944C67.4491 9.24267 67.2784 9.424 66.9691 9.488C66.5957 9.57333 66.2277 9.60533 65.8651 9.584C65.6837 9.57333 65.5077 9.58933 65.3371 9.632C65.1664 9.67467 64.9904 9.72267 64.8091 9.776C64.7344 9.79733 64.6757 9.83467 64.6331 9.888C64.5904 9.94133 64.5477 10 64.5051 10.064C64.4411 10.2133 64.3984 10.368 64.3771 10.528C64.3664 10.6773 64.3664 10.8267 64.3771 10.976C64.3877 11.0933 64.4411 11.2 64.5371 11.296C64.6331 11.3813 64.7397 11.4293 64.8571 11.44C64.9211 11.44 64.9851 11.4453 65.0491 11.456C65.1131 11.4667 65.1771 11.4773 65.2411 11.488C65.3371 11.5093 65.4331 11.5253 65.5291 11.536C65.6251 11.536 65.7211 11.5307 65.8171 11.52C65.9451 11.4987 66.0731 11.488 66.2011 11.488C66.3397 11.488 66.4731 11.4933 66.6011 11.504C66.7397 11.5147 66.8784 11.52 67.0171 11.52C67.1557 11.5093 67.2944 11.504 67.4331 11.504C67.5077 11.504 67.5771 11.5093 67.6411 11.52C67.7157 11.52 67.7904 11.52 67.8651 11.52C68.0464 11.52 68.1904 11.568 68.2971 11.664C68.4037 11.76 68.4944 11.8827 68.5691 12.032C68.6544 12.2453 68.6917 12.4587 68.6811 12.672C68.6811 12.8747 68.6597 13.0827 68.6171 13.296C68.6064 13.3387 68.5957 13.376 68.5851 13.408C68.5744 13.44 68.5637 13.472 68.5531 13.504C68.5211 13.632 68.4517 13.728 68.3451 13.792C68.2811 13.8347 68.2331 13.872 68.2011 13.904C68.1264 13.9893 68.0197 14.032 67.8811 14.032C67.6891 14.0533 67.4917 14.0747 67.2891 14.096C67.0971 14.1173 66.9051 14.1013 66.7131 14.048C66.6811 14.0373 66.6437 14.0373 66.6011 14.048C66.5691 14.0587 66.5317 14.064 66.4891 14.064C66.4357 14.064 66.3771 14.064 66.3131 14.064C66.2491 14.0747 66.1904 14.0747 66.1371 14.064C65.8704 14.0107 65.6037 13.9893 65.3371 14C65.0704 14.0107 64.8037 14.032 64.5371 14.064C64.1637 14.1067 63.7691 14.112 63.3531 14.08ZM75.3717 13.28C75.2224 13.3547 75.0784 13.4293 74.9397 13.504C74.801 13.568 74.6464 13.616 74.4757 13.648C74.3477 13.6693 74.2197 13.7013 74.0917 13.744C73.9744 13.776 73.8517 13.808 73.7237 13.84C73.5957 13.8827 73.4677 13.9147 73.3397 13.936C73.2117 13.9467 73.0784 13.9573 72.9397 13.968C72.705 13.9787 72.4704 13.9893 72.2357 14C72.0117 14.0107 71.7824 14.0427 71.5477 14.096C71.3664 14.1387 71.1797 14.1493 70.9877 14.128C70.7957 14.1173 70.6037 14.112 70.4117 14.112C70.3264 14.1013 70.2357 14.0533 70.1397 13.968C70.0437 13.872 69.985 13.7813 69.9637 13.696C69.9317 13.5787 69.9157 13.4667 69.9157 13.36C69.9264 13.2533 69.937 13.1413 69.9477 13.024C69.9584 12.9067 69.9584 12.7947 69.9477 12.688C69.9477 12.5707 69.937 12.4533 69.9157 12.336C69.8837 12.1653 69.8784 11.9627 69.8997 11.728C69.921 11.344 69.921 10.9653 69.8997 10.592C69.8784 10.208 69.857 9.824 69.8357 9.44C69.8357 9.23733 69.8357 9.03467 69.8357 8.832C69.8357 8.62933 69.8304 8.42667 69.8197 8.224C69.809 7.92533 69.793 7.632 69.7717 7.344C69.761 7.04533 69.7397 6.74133 69.7077 6.432C69.6864 6.21867 69.6757 6.00533 69.6757 5.792C69.6757 5.57867 69.6757 5.36533 69.6757 5.152C69.6864 4.832 69.6864 4.512 69.6757 4.192C69.6757 4.05333 69.681 3.92 69.6917 3.792C69.713 3.664 69.7344 3.536 69.7557 3.408C69.7877 3.20533 69.8997 3.09867 70.0917 3.088C70.4757 3.06667 70.8544 3.03467 71.2277 2.992C71.6117 2.94933 71.9957 2.95467 72.3797 3.008C72.561 3.02933 72.7317 3.04 72.8917 3.04C73.0624 3.04 73.2384 3.04533 73.4197 3.056C73.4837 3.056 73.5477 3.06133 73.6117 3.072C73.6757 3.072 73.7397 3.07733 73.8037 3.088C73.985 3.10933 74.1557 3.15733 74.3157 3.232C74.4864 3.30667 74.6464 3.392 74.7957 3.488C74.913 3.56267 75.0517 3.62667 75.2117 3.68C75.3717 3.744 75.4837 3.84533 75.5477 3.984L75.7397 4.336C75.8357 4.496 75.921 4.66133 75.9957 4.832C76.0704 4.992 76.1344 5.16267 76.1877 5.344C76.2624 5.57867 76.337 5.81333 76.4117 6.048C76.4864 6.272 76.5504 6.50667 76.6037 6.752C76.657 6.98667 76.705 7.22133 76.7477 7.456C76.7904 7.68 76.8117 7.91467 76.8117 8.16C76.8117 8.26667 76.817 8.37333 76.8277 8.48C76.849 8.58667 76.8544 8.69333 76.8437 8.8C76.833 9.07733 76.8224 9.35467 76.8117 9.632C76.801 9.89867 76.769 10.1707 76.7157 10.448C76.7157 10.4907 76.7104 10.5227 76.6997 10.544C76.625 10.7893 76.561 11.04 76.5077 11.296C76.4544 11.5413 76.3744 11.7867 76.2677 12.032C76.2037 12.1813 76.1344 12.336 76.0597 12.496C75.985 12.6453 75.889 12.7893 75.7717 12.928C75.665 13.088 75.5317 13.2053 75.3717 13.28ZM74.1397 7.712C74.1504 7.11467 74.033 6.52267 73.7877 5.936C73.7024 5.744 73.6224 5.62667 73.5477 5.584C73.4837 5.53067 73.3504 5.504 73.1477 5.504H73.0357C72.7797 5.51467 72.593 5.57333 72.4757 5.68C72.369 5.78667 72.2837 5.936 72.2197 6.128C72.145 6.34133 72.1024 6.54933 72.0917 6.752C72.0917 6.90133 72.0864 7.05067 72.0757 7.2C72.0757 7.34933 72.0864 7.49867 72.1077 7.648C72.1397 7.85067 72.1504 8.05333 72.1397 8.256C72.129 8.448 72.1184 8.64533 72.1077 8.848C72.1077 8.944 72.1024 9.04 72.0917 9.136C72.0917 9.22133 72.0864 9.30667 72.0757 9.392C72.0544 9.616 72.0544 9.84 72.0757 10.064C72.1077 10.2773 72.129 10.496 72.1397 10.72C72.1397 10.7413 72.1397 10.7573 72.1397 10.768C72.1504 10.7787 72.1557 10.7947 72.1557 10.816C72.209 10.9867 72.2997 11.1093 72.4277 11.184C72.5664 11.248 72.721 11.264 72.8917 11.232C73.073 11.1893 73.233 11.12 73.3717 11.024C73.5104 10.928 73.6384 10.816 73.7557 10.688C73.841 10.6027 73.9104 10.5067 73.9637 10.4C74.017 10.2827 74.0544 10.16 74.0757 10.032C74.097 9.91467 74.113 9.79733 74.1237 9.68C74.1344 9.552 74.1397 9.42933 74.1397 9.312C74.1397 9.04533 74.1344 8.77867 74.1237 8.512C74.1237 8.24533 74.129 7.97867 74.1397 7.712Z" fill="#1C1C1C"/>
<path d="M79.4319 13.52C79.0266 13.3173 78.6693 13.0453 78.3599 12.704C78.1999 12.512 78.1359 12.304 78.1679 12.08C78.1786 11.9947 78.1893 11.9147 78.1999 11.84C78.2213 11.7547 78.2586 11.6747 78.3119 11.6C78.3866 11.4827 78.4613 11.376 78.5359 11.28C78.6106 11.1733 78.6906 11.0667 78.7759 10.96C78.8506 10.8533 78.9626 10.784 79.1119 10.752C79.2613 10.72 79.3946 10.7307 79.5119 10.784L80.2959 11.216C80.4879 11.3227 80.6799 11.424 80.8719 11.52C81.0639 11.6053 81.2666 11.68 81.4799 11.744C81.6613 11.7867 81.8479 11.7707 82.0399 11.696C82.1466 11.6533 82.2266 11.5947 82.2799 11.52C82.3333 11.4347 82.3813 11.3493 82.4239 11.264C82.5839 10.9333 82.5679 10.6133 82.3759 10.304C82.3119 10.1973 82.2213 10.1013 82.1039 10.016C82.0079 9.93067 81.9013 9.86133 81.7839 9.808C81.6773 9.75467 81.5653 9.70133 81.4479 9.648C81.1386 9.54133 80.8079 9.44533 80.4559 9.36C80.3813 9.36 80.3226 9.344 80.2799 9.312C79.9706 9.152 79.6719 8.97067 79.3839 8.768C79.1066 8.56533 78.8453 8.33067 78.5999 8.064C78.5039 7.968 78.4133 7.86667 78.3279 7.76C78.2426 7.65333 78.1626 7.54133 78.0879 7.424C77.9813 7.24267 77.9173 7.056 77.8959 6.864C77.8746 6.66133 77.8533 6.45333 77.8319 6.24C77.8106 5.89867 77.8639 5.584 77.9919 5.296C78.1306 5.008 78.3066 4.74133 78.5199 4.496C78.6053 4.38933 78.6959 4.288 78.7919 4.192C78.8879 4.096 78.9786 3.98933 79.0639 3.872C79.1706 3.744 79.2826 3.63733 79.3999 3.552C79.5279 3.46667 79.6666 3.392 79.8159 3.328C80.3493 3.08267 80.8879 2.96533 81.4319 2.976C81.4853 2.976 81.5279 2.976 81.5599 2.976C81.6026 2.96533 81.6453 2.95467 81.6879 2.944C82.0399 2.90133 82.3866 2.944 82.7279 3.072C83.1546 3.232 83.5493 3.42933 83.9119 3.664C84.1253 3.80267 84.3066 3.96267 84.4559 4.144C84.6159 4.32533 84.7333 4.53867 84.8079 4.784C84.8613 4.944 84.8879 5.09867 84.8879 5.248C84.8986 5.41867 84.8506 5.584 84.7439 5.744C84.5626 6.01067 84.3653 6.23467 84.1519 6.416C84.0026 6.53333 83.8746 6.59733 83.7679 6.608C83.6613 6.608 83.5493 6.56533 83.4319 6.48C83.3893 6.45867 83.3519 6.432 83.3199 6.4C83.2879 6.368 83.2506 6.336 83.2079 6.304C83.0693 6.18667 82.9359 6.06933 82.8079 5.952C82.6799 5.83467 82.5466 5.71733 82.4079 5.6C82.3439 5.536 82.2746 5.488 82.1999 5.456C82.0506 5.40267 81.8959 5.35467 81.7359 5.312C81.5866 5.25867 81.4266 5.24267 81.2559 5.264H81.1119C80.9946 5.28533 80.8826 5.33867 80.7759 5.424C80.6799 5.50933 80.5946 5.616 80.5199 5.744C80.4559 5.86133 80.4079 5.98933 80.3759 6.128C80.3546 6.256 80.3653 6.37333 80.4079 6.48C80.4293 6.53333 80.4719 6.60267 80.5359 6.688C80.7386 6.89067 80.9626 7.02933 81.2079 7.104C81.4319 7.15733 81.6506 7.232 81.8639 7.328C82.0773 7.41333 82.2906 7.49333 82.5039 7.568C82.8346 7.68533 83.1173 7.84533 83.3519 8.048C83.4693 8.15467 83.5866 8.272 83.7039 8.4C83.8213 8.51733 83.9279 8.64533 84.0239 8.784C84.0773 8.848 84.1199 8.912 84.1519 8.976C84.1946 9.04 84.2373 9.104 84.2799 9.168C84.3653 9.296 84.4399 9.42933 84.5039 9.568C84.5679 9.70667 84.6266 9.85067 84.6799 10C84.7653 10.2773 84.8133 10.5493 84.8239 10.816C84.8453 11.0827 84.8399 11.3547 84.8079 11.632C84.7439 12.2187 84.5413 12.72 84.1999 13.136C84.0826 13.2747 83.9546 13.3973 83.8159 13.504C83.6879 13.6107 83.5493 13.7067 83.3999 13.792C83.1653 13.92 82.9199 14.0053 82.6639 14.048C82.4186 14.0907 82.1679 14.112 81.9119 14.112C81.3999 14.1227 80.8826 14.048 80.3599 13.888C80.1999 13.8347 80.0399 13.7813 79.8799 13.728C79.7306 13.664 79.5813 13.5947 79.4319 13.52ZM91.3188 13.84C91.2121 13.8507 91.1055 13.872 90.9988 13.904C90.8921 13.936 90.7908 13.9733 90.6948 14.016C90.4495 14.1227 90.1935 14.1333 89.9268 14.048C89.8308 14.0267 89.7348 14.0053 89.6388 13.984C89.5428 13.9627 89.4415 13.952 89.3348 13.952C88.5775 13.9307 87.8895 13.744 87.2708 13.392C87.2068 13.36 87.1428 13.312 87.0788 13.248C86.8335 13.024 86.6308 12.7573 86.4708 12.448C86.3428 12.2133 86.2361 11.9733 86.1508 11.728C86.0761 11.472 86.0335 11.2053 86.0228 10.928C86.0015 10.5867 85.9801 10.2453 85.9588 9.904C85.9375 9.56267 85.9161 9.22133 85.8948 8.88C85.8841 8.624 85.8735 8.368 85.8628 8.112C85.8628 7.84533 85.8681 7.57867 85.8788 7.312C85.8895 7.12 85.8895 6.928 85.8788 6.736C85.8788 6.544 85.8895 6.352 85.9108 6.16C85.9321 5.84 85.9428 5.52 85.9428 5.2C85.9535 4.88 85.9588 4.55467 85.9588 4.224C85.9695 4.128 85.9748 4.032 85.9748 3.936C85.9855 3.82933 86.0068 3.728 86.0388 3.632C86.0601 3.55733 86.0868 3.49333 86.1188 3.44C86.1615 3.38667 86.2201 3.33867 86.2948 3.296C86.3695 3.25333 86.4441 3.22133 86.5188 3.2C86.5935 3.168 86.6735 3.14667 86.7588 3.136C87.1428 3.12533 87.5268 3.14133 87.9108 3.184C88.0495 3.184 88.1348 3.25333 88.1668 3.392C88.1881 3.44533 88.2095 3.504 88.2308 3.568C88.2521 3.632 88.2628 3.70133 88.2628 3.776V4.064L88.1988 5.776C88.1988 6.04267 88.1988 6.30933 88.1988 6.576C88.2095 6.832 88.2148 7.09333 88.2148 7.36C88.2148 7.78667 88.2148 8.21333 88.2148 8.64C88.2148 9.06667 88.2255 9.49867 88.2468 9.936C88.2681 10.2133 88.3001 10.4747 88.3428 10.72C88.3855 10.944 88.4655 11.152 88.5828 11.344C88.6895 11.5253 88.8495 11.6427 89.0628 11.696C89.2868 11.7387 89.5055 11.7547 89.7188 11.744C89.9428 11.7227 90.1615 11.664 90.3748 11.568C90.6735 11.44 90.8761 11.2053 90.9828 10.864C91.1001 10.512 91.1748 10.1547 91.2068 9.792C91.2388 9.42933 91.2495 9.06667 91.2388 8.704C91.2388 8.128 91.2228 7.54133 91.1908 6.944C91.1908 6.74133 91.1801 6.544 91.1588 6.352C91.1375 6.16 91.1321 5.96267 91.1428 5.76C91.1641 5.39733 91.1695 5.04 91.1588 4.688C91.1481 4.336 91.1321 3.97867 91.1108 3.616C91.0895 3.31733 91.2228 3.152 91.5108 3.12C91.6601 3.09867 91.8095 3.08267 91.9588 3.072C92.1188 3.06133 92.2788 3.06667 92.4388 3.088C92.5455 3.10933 92.6521 3.12 92.7588 3.12C92.8655 3.10933 92.9721 3.104 93.0788 3.104C93.2175 3.11467 93.3135 3.14667 93.3668 3.2C93.4201 3.24267 93.4575 3.33333 93.4788 3.472C93.4895 3.51467 93.4948 3.57333 93.4948 3.648C93.5055 3.904 93.5108 4.16 93.5108 4.416C93.5215 4.66133 93.5108 4.90667 93.4788 5.152C93.4681 5.20533 93.4575 5.25867 93.4468 5.312C93.4468 5.36533 93.4521 5.41867 93.4628 5.472C93.4628 5.81333 93.4575 6.15467 93.4468 6.496C93.4361 6.83733 93.4361 7.17867 93.4468 7.52C93.4575 7.82933 93.4575 8.13333 93.4468 8.432C93.4361 8.72 93.4308 9.01333 93.4308 9.312C93.4308 9.51467 93.4308 9.71733 93.4308 9.92C93.4308 10.112 93.4095 10.304 93.3668 10.496C93.3348 10.6347 93.3135 10.7733 93.3028 10.912C93.2921 11.0507 93.2708 11.1947 93.2388 11.344C93.1961 11.5573 93.1215 11.7973 93.0148 12.064C92.9188 12.2773 92.8175 12.4853 92.7108 12.688C92.6041 12.88 92.4815 13.0667 92.3428 13.248C92.2788 13.3333 92.2041 13.408 92.1188 13.472C91.9908 13.5467 91.8628 13.6213 91.7348 13.696C91.6175 13.7707 91.4788 13.8187 91.3188 13.84ZM101.928 3.168C102.13 3.2 102.269 3.328 102.344 3.552C102.397 3.712 102.418 3.888 102.408 4.08C102.386 4.29333 102.36 4.512 102.328 4.736C102.296 4.96 102.285 5.17867 102.296 5.392V5.856C102.296 5.90933 102.296 5.95733 102.296 6C102.306 6.032 102.306 6.06933 102.296 6.112C102.253 6.4 102.237 6.688 102.248 6.976C102.258 7.264 102.253 7.552 102.232 7.84L102.184 8.512C102.162 8.768 102.157 9.024 102.168 9.28C102.178 9.536 102.184 9.792 102.184 10.048C102.173 10.2827 102.168 10.512 102.168 10.736C102.178 10.96 102.184 11.184 102.184 11.408C102.184 11.696 102.178 11.984 102.168 12.272C102.168 12.56 102.168 12.848 102.168 13.136C102.168 13.2213 102.162 13.3067 102.152 13.392C102.152 13.4667 102.136 13.5467 102.104 13.632C102.05 13.7493 101.986 13.8347 101.912 13.888C101.837 13.9413 101.736 13.968 101.608 13.968C101.49 13.9573 101.378 13.952 101.272 13.952C101.176 13.952 101.074 13.952 100.968 13.952C100.861 13.952 100.76 13.92 100.664 13.856C100.514 13.76 100.381 13.648 100.264 13.52C100.146 13.392 100.029 13.2693 99.9118 13.152C99.8371 13.088 99.7785 13.0133 99.7358 12.928C99.7038 12.832 99.6611 12.7413 99.6078 12.656C99.4798 12.4427 99.3518 12.2347 99.2238 12.032C99.0958 11.8293 98.9731 11.6213 98.8558 11.408L98.7118 11.152C98.6691 11.0347 98.6158 10.928 98.5518 10.832C98.4985 10.736 98.4345 10.64 98.3598 10.544C98.2851 10.448 98.2158 10.3467 98.1518 10.24C98.0985 10.1333 98.0451 10.0267 97.9918 9.92L97.8158 9.616C97.7411 9.49867 97.6345 9.43467 97.4958 9.424C97.3678 9.41333 97.2611 9.46133 97.1758 9.568C97.1118 9.65333 97.0745 9.728 97.0638 9.792C97.0105 9.93067 96.9678 10.0693 96.9358 10.208C96.9145 10.3467 96.9038 10.4907 96.9038 10.64C96.9145 10.864 96.9198 11.088 96.9198 11.312C96.9305 11.5253 96.9251 11.7333 96.9038 11.936L96.9358 12.896V13.536C96.9358 13.6 96.9251 13.6587 96.9038 13.712C96.8825 13.7653 96.8611 13.8187 96.8398 13.872C96.7971 13.9467 96.7331 14 96.6478 14.032C96.5945 14.0533 96.5358 14.0693 96.4718 14.08C96.4185 14.0907 96.3598 14.0907 96.2958 14.08C96.1358 14.08 95.9758 14.0747 95.8158 14.064C95.6558 14.064 95.4958 14.0693 95.3358 14.08C95.1971 14.08 95.0851 14.048 94.9998 13.984C94.9251 13.9093 94.8451 13.8293 94.7598 13.744C94.7385 13.7227 94.7278 13.7013 94.7278 13.68C94.7278 13.648 94.7225 13.616 94.7118 13.584C94.7011 13.4987 94.6905 13.4133 94.6798 13.328C94.6798 13.232 94.6798 13.136 94.6798 13.04C94.6798 12.8907 94.6745 12.7467 94.6638 12.608C94.6531 12.4587 94.6478 12.3093 94.6478 12.16C94.6585 11.8187 94.6691 11.4827 94.6798 11.152C94.6905 10.8213 94.6958 10.4853 94.6958 10.144C94.6958 9.81333 94.6958 9.488 94.6958 9.168C94.6958 8.83733 94.6905 8.50667 94.6798 8.176C94.6798 8.08 94.6745 7.984 94.6638 7.888C94.6531 7.792 94.6371 7.696 94.6158 7.6C94.5625 7.26933 94.5305 6.93867 94.5198 6.608C94.5091 6.27733 94.5145 5.94133 94.5358 5.6C94.5571 5.504 94.5571 5.39733 94.5358 5.28C94.5038 5.06667 94.4878 4.85333 94.4878 4.64C94.4985 4.42667 94.5038 4.21333 94.5038 4C94.5145 3.872 94.5411 3.75467 94.5838 3.648C94.6371 3.54133 94.6958 3.44 94.7598 3.344C94.7918 3.29067 94.8451 3.24267 94.9198 3.2C95.1118 3.136 95.3038 3.088 95.4958 3.056C95.6878 3.024 95.8851 3.03467 96.0878 3.088C96.3758 3.152 96.6051 3.30667 96.7758 3.552C96.9251 3.744 97.0585 3.94133 97.1758 4.144C97.2931 4.34667 97.4105 4.55467 97.5278 4.768C97.5918 4.87467 97.6611 4.976 97.7358 5.072C97.8105 5.168 97.8798 5.27467 97.9438 5.392C98.0718 5.60533 98.1998 5.81333 98.3278 6.016C98.4665 6.208 98.6051 6.40533 98.7438 6.608C98.8398 6.74667 98.9678 6.896 99.1278 7.056C99.1918 7.12 99.2718 7.168 99.3678 7.2C99.4531 7.24267 99.5385 7.248 99.6238 7.216C99.7091 7.184 99.7625 7.12 99.7838 7.024C99.8371 6.84267 99.8798 6.66667 99.9118 6.496C99.9438 6.32533 99.9491 6.14933 99.9278 5.968C99.8958 5.70133 99.8958 5.424 99.9278 5.136C99.9491 4.944 99.9491 4.752 99.9278 4.56C99.9171 4.35733 99.9118 4.16 99.9118 3.968L99.8798 3.712C99.8798 3.46667 99.9918 3.29067 100.216 3.184C100.333 3.13067 100.456 3.09867 100.584 3.088C100.712 3.07733 100.84 3.072 100.968 3.072C101.288 3.072 101.608 3.104 101.928 3.168Z" fill="#A93926"/>
<path d="M62.8959 32.516C62.8226 32.4133 62.7786 32.3033 62.7639 32.186C62.6613 31.8047 62.5586 31.4233 62.4559 31.042C62.3533 30.6607 62.2579 30.2793 62.1699 29.898C62.1406 29.7807 62.1186 29.656 62.1039 29.524C62.0893 29.392 62.0673 29.26 62.0379 29.128C61.9793 28.9373 61.8839 28.9007 61.7519 29.018C61.4879 29.1793 61.3266 29.3847 61.2679 29.634C61.2093 29.8833 61.1213 30.1253 61.0039 30.36C60.8866 30.5947 60.7986 30.844 60.7399 31.108C60.6959 31.372 60.5419 31.526 60.2779 31.57C60.0286 31.5993 59.7793 31.6213 59.5299 31.636C59.2953 31.6507 59.0533 31.6653 58.8039 31.68C58.6866 31.68 58.5839 31.6653 58.4959 31.636C58.4079 31.592 58.3346 31.5113 58.2759 31.394C58.2466 31.3647 58.2246 31.3353 58.2099 31.306C58.1953 31.2767 58.1733 31.2547 58.1439 31.24C57.9826 31.1373 57.8726 31.02 57.8139 30.888C57.7553 30.7413 57.7039 30.5873 57.6599 30.426C57.6159 30.2353 57.5719 30.052 57.5279 29.876C57.4839 29.6853 57.4326 29.502 57.3739 29.326C57.3739 29.238 57.3519 29.1573 57.3079 29.084C57.2786 29.0107 57.2346 28.9667 57.1759 28.952C57.1173 28.9373 57.0586 28.9593 56.9999 29.018C56.7799 29.194 56.6406 29.4067 56.5819 29.656C56.4939 29.9787 56.4133 30.3013 56.3399 30.624C56.2813 30.932 56.2373 31.2547 56.2079 31.592C56.1786 31.9 56.1346 32.208 56.0759 32.516C56.0466 32.6773 55.9953 32.7947 55.9219 32.868C55.8486 32.9267 55.7239 32.956 55.5479 32.956L54.1619 33.022C54.0299 33.0367 53.8979 33.0293 53.7659 33C53.6486 32.9707 53.5239 32.934 53.3919 32.89C53.2013 32.846 53.0839 32.7067 53.0399 32.472C52.9959 32.2667 52.9813 32.0687 52.9959 31.878C53.0106 31.6727 53.0326 31.4673 53.0619 31.262C53.0913 30.954 53.1279 30.646 53.1719 30.338C53.2306 30.03 53.2526 29.7073 53.2379 29.37C53.2086 29.1647 53.2086 28.9593 53.2379 28.754C53.2819 28.5487 53.3186 28.336 53.3479 28.116C53.3919 27.808 53.4359 27.5 53.4799 27.192C53.5386 26.884 53.5826 26.576 53.6119 26.268C53.6413 25.7693 53.6926 25.2853 53.7659 24.816C53.8539 24.332 53.9126 23.8407 53.9419 23.342C53.9566 23.0927 53.9786 22.8507 54.0079 22.616C54.0373 22.3667 54.0739 22.1173 54.1179 21.868C54.2939 21.0467 54.3673 20.1667 54.3379 19.228C54.3379 19.052 54.3599 18.8907 54.4039 18.744C54.4626 18.5973 54.5286 18.4507 54.6019 18.304C54.6899 18.128 54.8366 18.04 55.0419 18.04H55.5919C55.7093 18.0253 55.8266 18.018 55.9439 18.018C56.0759 18.018 56.2006 18.0033 56.3179 17.974C56.5379 17.9007 56.7286 17.908 56.8899 17.996C57.0659 18.084 57.2346 18.194 57.3959 18.326C57.4253 18.3553 57.4399 18.392 57.4399 18.436C57.4546 18.4653 57.4766 18.4947 57.5059 18.524L57.7259 19.184C57.8873 19.668 58.0633 20.1227 58.2539 20.548C58.3273 20.6947 58.3859 20.8413 58.4299 20.988C58.4739 21.1347 58.5179 21.2887 58.5619 21.45C58.6206 21.6993 58.7233 21.956 58.8699 22.22C59.0459 22.484 59.2513 22.506 59.4859 22.286C59.6473 22.1393 59.7719 21.978 59.8599 21.802C59.9626 21.626 60.0506 21.4427 60.1239 21.252C60.2413 20.9147 60.3659 20.5847 60.4979 20.262C60.6446 19.9393 60.7766 19.6093 60.8939 19.272L61.0919 18.612C61.1946 18.2747 61.4366 18.0913 61.8179 18.062C62.0819 18.0473 62.3459 18.0327 62.6099 18.018C62.8739 18.0033 63.1379 18.018 63.4019 18.062C63.5046 18.0767 63.6073 18.0987 63.7099 18.128C63.8126 18.1427 63.9006 18.194 63.9739 18.282C64.0913 18.3993 64.1866 18.5313 64.2599 18.678C64.3479 18.81 64.3919 18.964 64.3919 19.14C64.4213 19.712 64.4653 20.284 64.5239 20.856C64.5973 21.428 64.6706 22 64.7439 22.572C64.8173 23.1 64.9053 23.6353 65.0079 24.178C65.1106 24.706 65.1986 25.234 65.2719 25.762C65.2866 25.8353 65.3013 25.9013 65.3159 25.96C65.3306 26.0187 65.3379 26.0847 65.3379 26.158C65.3379 26.7153 65.3819 27.2727 65.4699 27.83C65.5579 28.3727 65.6459 28.9227 65.7339 29.48C65.8073 29.8467 65.8659 30.2133 65.9099 30.58C65.9686 30.932 66.0126 31.2987 66.0419 31.68C66.0566 31.8267 66.0566 31.9733 66.0419 32.12C66.0273 32.252 66.0053 32.3987 65.9759 32.56C65.9319 32.7947 65.7926 32.934 65.5579 32.978C65.3086 33.0073 65.0666 33.0367 64.8319 33.066C64.6119 33.0953 64.3773 33.1027 64.1279 33.088C63.8786 33.088 63.6513 33.044 63.4459 32.956C63.2406 32.868 63.0573 32.7213 62.8959 32.516ZM69.5685 33.11C69.4071 33.0807 69.2385 33.0587 69.0625 33.044C68.9011 33.0293 68.7398 33.0147 68.5785 33C68.3731 33 68.1898 32.9633 68.0285 32.89C67.8818 32.802 67.7718 32.6553 67.6985 32.45C67.6251 32.2887 67.5665 32.1347 67.5225 31.988C67.4785 31.8267 67.4638 31.658 67.4785 31.482C67.4785 31.2767 67.4785 31.064 67.4785 30.844C67.4785 30.624 67.4858 30.4113 67.5005 30.206C67.5151 29.9273 67.5225 29.656 67.5225 29.392C67.5371 29.128 67.5298 28.8567 67.5005 28.578C67.4711 28.2847 67.4565 27.9987 67.4565 27.72C67.4565 27.4413 67.4638 27.1553 67.4785 26.862V23.606C67.4785 23.3713 67.4785 23.144 67.4785 22.924C67.4785 22.6893 67.4711 22.462 67.4565 22.242C67.4271 21.9487 67.4051 21.6553 67.3905 21.362C67.3905 21.054 67.4051 20.7533 67.4345 20.46C67.4638 20.328 67.4711 20.196 67.4565 20.064C67.4565 19.932 67.4565 19.8 67.4565 19.668C67.4565 19.536 67.4711 19.404 67.5005 19.272C67.5298 19.1253 67.5665 18.986 67.6105 18.854C67.8011 18.3407 68.1898 18.0693 68.7765 18.04C69.0258 18.0253 69.2825 18.0253 69.5465 18.04C69.8105 18.04 70.0671 18.04 70.3165 18.04C70.4778 18.04 70.6318 18.04 70.7785 18.04C70.9251 18.04 71.0791 18.0253 71.2405 17.996C71.5191 17.9667 71.7685 17.974 71.9885 18.018C72.0618 18.0327 72.1278 18.04 72.1865 18.04C72.2451 18.04 72.3111 18.04 72.3845 18.04L75.4205 17.908H75.7285C76.1098 17.908 76.3665 18.0913 76.4985 18.458C76.4985 18.4727 76.5058 18.4873 76.5205 18.502C76.5938 18.8393 76.6305 19.184 76.6305 19.536C76.6451 19.8733 76.6085 20.2107 76.5205 20.548C76.4618 20.7827 76.3078 20.944 76.0585 21.032C75.9411 21.076 75.8165 21.1127 75.6845 21.142C75.5671 21.1713 75.4425 21.1787 75.3105 21.164C74.9291 21.164 74.5551 21.1713 74.1885 21.186C73.8365 21.186 73.4698 21.164 73.0885 21.12C72.6778 21.076 72.2745 21.1127 71.8785 21.23C71.6585 21.3033 71.4678 21.4133 71.3065 21.56C71.1451 21.7067 71.0498 21.9047 71.0205 22.154C70.9911 22.2713 70.9765 22.3813 70.9765 22.484C70.9911 22.572 71.0058 22.6747 71.0205 22.792C71.0938 23.144 71.2845 23.364 71.5925 23.452C71.8125 23.5253 72.0251 23.5913 72.2305 23.65C72.4505 23.694 72.6778 23.7013 72.9125 23.672C73.0738 23.672 73.2278 23.672 73.3745 23.672C73.5211 23.672 73.6751 23.6647 73.8365 23.65C74.1005 23.65 74.3425 23.6793 74.5625 23.738C75.0318 23.87 75.2738 24.1487 75.2885 24.574C75.3031 24.8233 75.3031 25.0727 75.2885 25.322C75.2885 25.5567 75.2738 25.7987 75.2445 26.048C75.2005 26.4587 74.9658 26.708 74.5405 26.796C74.0271 26.9133 73.5211 26.9573 73.0225 26.928C72.7731 26.9133 72.5311 26.9353 72.2965 26.994C72.0618 27.0527 71.8198 27.1187 71.5705 27.192C71.4678 27.2213 71.3871 27.2727 71.3285 27.346C71.2698 27.4193 71.2111 27.5 71.1525 27.588C71.0645 27.7933 71.0058 28.006 70.9765 28.226C70.9618 28.4313 70.9618 28.6367 70.9765 28.842C70.9911 29.0033 71.0645 29.15 71.1965 29.282C71.3285 29.3993 71.4751 29.4653 71.6365 29.48C71.7245 29.48 71.8125 29.4873 71.9005 29.502C71.9885 29.5167 72.0765 29.5313 72.1645 29.546C72.2965 29.5753 72.4285 29.5973 72.5605 29.612C72.6925 29.612 72.8245 29.6047 72.9565 29.59C73.1325 29.5607 73.3085 29.546 73.4845 29.546C73.6751 29.546 73.8585 29.5533 74.0345 29.568C74.2251 29.5827 74.4158 29.59 74.6065 29.59C74.7971 29.5753 74.9878 29.568 75.1785 29.568C75.2811 29.568 75.3765 29.5753 75.4645 29.59C75.5671 29.59 75.6698 29.59 75.7725 29.59C76.0218 29.59 76.2198 29.656 76.3665 29.788C76.5131 29.92 76.6378 30.0887 76.7405 30.294C76.8578 30.5873 76.9091 30.8807 76.8945 31.174C76.8945 31.4527 76.8651 31.7387 76.8065 32.032C76.7918 32.0907 76.7771 32.142 76.7625 32.186C76.7478 32.23 76.7331 32.274 76.7185 32.318C76.6745 32.494 76.5791 32.626 76.4325 32.714C76.3445 32.7727 76.2785 32.824 76.2345 32.868C76.1318 32.9853 75.9851 33.044 75.7945 33.044C75.5305 33.0733 75.2591 33.1027 74.9805 33.132C74.7165 33.1613 74.4525 33.1393 74.1885 33.066C74.1445 33.0513 74.0931 33.0513 74.0345 33.066C73.9905 33.0807 73.9391 33.088 73.8805 33.088C73.8071 33.088 73.7265 33.088 73.6385 33.088C73.5505 33.1027 73.4698 33.1027 73.3965 33.088C73.0298 33.0147 72.6631 32.9853 72.2965 33C71.9298 33.0147 71.5631 33.044 71.1965 33.088C70.6831 33.1467 70.1405 33.154 69.5685 33.11ZM88.4701 18.106C88.7487 18.15 88.9394 18.326 89.0421 18.634C89.1154 18.854 89.1447 19.096 89.1301 19.36C89.1007 19.6533 89.0641 19.954 89.0201 20.262C88.9761 20.57 88.9614 20.8707 88.9761 21.164V21.802C88.9761 21.8753 88.9761 21.9413 88.9761 22C88.9907 22.044 88.9907 22.0953 88.9761 22.154C88.9174 22.55 88.8954 22.946 88.9101 23.342C88.9247 23.738 88.9174 24.134 88.8881 24.53L88.8221 25.454C88.7927 25.806 88.7854 26.158 88.8001 26.51C88.8147 26.862 88.8221 27.214 88.8221 27.566C88.8074 27.8887 88.8001 28.204 88.8001 28.512C88.8147 28.82 88.8221 29.128 88.8221 29.436C88.8221 29.832 88.8147 30.228 88.8001 30.624C88.8001 31.02 88.8001 31.416 88.8001 31.812C88.8001 31.9293 88.7927 32.0467 88.7781 32.164C88.7781 32.2667 88.7561 32.3767 88.7121 32.494C88.6387 32.6553 88.5507 32.7727 88.4481 32.846C88.3454 32.9193 88.2061 32.956 88.0301 32.956C87.8687 32.9413 87.7147 32.934 87.5681 32.934C87.4361 32.934 87.2967 32.934 87.1501 32.934C87.0034 32.934 86.8641 32.89 86.7321 32.802C86.5267 32.67 86.3434 32.516 86.1821 32.34C86.0207 32.164 85.8594 31.9953 85.6981 31.834C85.5954 31.746 85.5147 31.6433 85.4561 31.526C85.4121 31.394 85.3534 31.2693 85.2801 31.152C85.1041 30.8587 84.9281 30.5727 84.7521 30.294C84.5761 30.0153 84.4074 29.7293 84.2461 29.436L84.0481 29.084C83.9894 28.9227 83.9161 28.776 83.8281 28.644C83.7547 28.512 83.6667 28.38 83.5641 28.248C83.4614 28.116 83.3661 27.9767 83.2781 27.83C83.2047 27.6833 83.1314 27.5367 83.0581 27.39L82.8161 26.972C82.7134 26.8107 82.5667 26.7227 82.3761 26.708C82.2001 26.6933 82.0534 26.7593 81.9361 26.906C81.8481 27.0233 81.7967 27.126 81.7821 27.214C81.7087 27.4047 81.6501 27.5953 81.6061 27.786C81.5767 27.9767 81.5621 28.1747 81.5621 28.38C81.5767 28.688 81.5841 28.996 81.5841 29.304C81.5987 29.5973 81.5914 29.8833 81.5621 30.162L81.6061 31.482V32.362C81.6061 32.45 81.5914 32.5307 81.5621 32.604C81.5327 32.6773 81.5034 32.7507 81.4741 32.824C81.4154 32.9267 81.3274 33 81.2101 33.044C81.1367 33.0733 81.0561 33.0953 80.9681 33.11C80.8947 33.1247 80.8141 33.1247 80.7261 33.11C80.5061 33.11 80.2861 33.1027 80.0661 33.088C79.8461 33.088 79.6261 33.0953 79.4061 33.11C79.2154 33.11 79.0614 33.066 78.9441 32.978C78.8414 32.8753 78.7314 32.7653 78.6141 32.648C78.5847 32.6187 78.5701 32.5893 78.5701 32.56C78.5701 32.516 78.5627 32.472 78.5481 32.428C78.5334 32.3107 78.5187 32.1933 78.5041 32.076C78.5041 31.944 78.5041 31.812 78.5041 31.68C78.5041 31.4747 78.4967 31.2767 78.4821 31.086C78.4674 30.8807 78.4601 30.6753 78.4601 30.47C78.4747 30.0007 78.4894 29.5387 78.5041 29.084C78.5187 28.6293 78.5261 28.1673 78.5261 27.698C78.5261 27.2433 78.5261 26.796 78.5261 26.356C78.5261 25.9013 78.5187 25.4467 78.5041 24.992C78.5041 24.86 78.4967 24.728 78.4821 24.596C78.4674 24.464 78.4454 24.332 78.4161 24.2C78.3427 23.7453 78.2987 23.2907 78.2841 22.836C78.2694 22.3813 78.2767 21.9193 78.3061 21.45C78.3354 21.318 78.3354 21.1713 78.3061 21.01C78.2621 20.7167 78.2401 20.4233 78.2401 20.13C78.2547 19.8367 78.2621 19.5433 78.2621 19.25C78.2767 19.074 78.3134 18.9127 78.3721 18.766C78.4454 18.6193 78.5261 18.48 78.6141 18.348C78.6581 18.2747 78.7314 18.2087 78.8341 18.15C79.0981 18.062 79.3621 17.996 79.6261 17.952C79.8901 17.908 80.1614 17.9227 80.4401 17.996C80.8361 18.084 81.1514 18.2967 81.3861 18.634C81.5914 18.898 81.7747 19.1693 81.9361 19.448C82.0974 19.7267 82.2587 20.0127 82.4201 20.306C82.5081 20.4527 82.6034 20.592 82.7061 20.724C82.8087 20.856 82.9041 21.0027 82.9921 21.164C83.1681 21.4573 83.3441 21.7433 83.5201 22.022C83.7107 22.286 83.9014 22.5573 84.0921 22.836C84.2241 23.0267 84.4001 23.232 84.6201 23.452C84.7081 23.54 84.8181 23.606 84.9501 23.65C85.0674 23.7087 85.1847 23.716 85.3021 23.672C85.4194 23.628 85.4927 23.54 85.5221 23.408C85.5954 23.1587 85.6541 22.9167 85.6981 22.682C85.7421 22.4473 85.7494 22.2053 85.7201 21.956C85.6761 21.5893 85.6761 21.208 85.7201 20.812C85.7494 20.548 85.7494 20.284 85.7201 20.02C85.7054 19.7413 85.6981 19.47 85.6981 19.206L85.6541 18.854C85.6541 18.5167 85.8081 18.2747 86.1161 18.128C86.2774 18.0547 86.4461 18.0107 86.6221 17.996C86.7981 17.9813 86.9741 17.974 87.1501 17.974C87.5901 17.974 88.0301 18.018 88.4701 18.106ZM97.9667 32.78C97.82 32.7947 97.6734 32.824 97.5267 32.868C97.38 32.912 97.2407 32.9633 97.1087 33.022C96.7714 33.1687 96.4194 33.1833 96.0527 33.066C95.9207 33.0367 95.7887 33.0073 95.6567 32.978C95.5247 32.9487 95.3854 32.934 95.2387 32.934C94.1974 32.9047 93.2514 32.648 92.4007 32.164C92.3127 32.12 92.2247 32.054 92.1367 31.966C91.7994 31.658 91.5207 31.2913 91.3007 30.866C91.1247 30.5433 90.978 30.2133 90.8607 29.876C90.758 29.524 90.6994 29.1573 90.6847 28.776C90.6554 28.3067 90.626 27.8373 90.5967 27.368C90.5674 26.8987 90.538 26.4293 90.5087 25.96C90.494 25.608 90.4794 25.256 90.4647 24.904C90.4647 24.5373 90.472 24.1707 90.4867 23.804C90.5014 23.54 90.5014 23.276 90.4867 23.012C90.4867 22.748 90.5014 22.484 90.5307 22.22C90.56 21.78 90.5747 21.34 90.5747 20.9C90.5894 20.46 90.5967 20.0127 90.5967 19.558C90.6114 19.426 90.6187 19.294 90.6187 19.162C90.6334 19.0153 90.6627 18.876 90.7067 18.744C90.736 18.6413 90.7727 18.5533 90.8167 18.48C90.8754 18.4067 90.956 18.3407 91.0587 18.282C91.1614 18.2233 91.264 18.1793 91.3667 18.15C91.4694 18.106 91.5794 18.0767 91.6967 18.062C92.2247 18.0473 92.7527 18.0693 93.2807 18.128C93.4714 18.128 93.5887 18.2233 93.6327 18.414C93.662 18.4873 93.6914 18.568 93.7207 18.656C93.75 18.744 93.7647 18.8393 93.7647 18.942V19.338L93.6767 21.692C93.6767 22.0587 93.6767 22.4253 93.6767 22.792C93.6914 23.144 93.6987 23.5033 93.6987 23.87C93.6987 24.4567 93.6987 25.0433 93.6987 25.63C93.6987 26.2167 93.7134 26.8107 93.7427 27.412C93.772 27.7933 93.816 28.1527 93.8747 28.49C93.9334 28.798 94.0434 29.084 94.2047 29.348C94.3514 29.5973 94.5714 29.7587 94.8647 29.832C95.1727 29.8907 95.4734 29.9127 95.7667 29.898C96.0747 29.8687 96.3754 29.788 96.6687 29.656C97.0794 29.48 97.358 29.1573 97.5047 28.688C97.666 28.204 97.7687 27.7127 97.8127 27.214C97.8567 26.7153 97.8714 26.2167 97.8567 25.718C97.8567 24.926 97.8347 24.1193 97.7907 23.298C97.7907 23.0193 97.776 22.748 97.7467 22.484C97.7174 22.22 97.71 21.9487 97.7247 21.67C97.754 21.1713 97.7614 20.68 97.7467 20.196C97.732 19.712 97.71 19.2207 97.6807 18.722C97.6514 18.3113 97.8347 18.084 98.2307 18.04C98.436 18.0107 98.6414 17.9887 98.8467 17.974C99.0667 17.9593 99.2867 17.9667 99.5067 17.996C99.6534 18.0253 99.8 18.04 99.9467 18.04C100.093 18.0253 100.24 18.018 100.387 18.018C100.577 18.0327 100.709 18.0767 100.783 18.15C100.856 18.2087 100.907 18.3333 100.937 18.524C100.951 18.5827 100.959 18.6633 100.959 18.766C100.973 19.118 100.981 19.47 100.981 19.822C100.995 20.1593 100.981 20.4967 100.937 20.834C100.922 20.9073 100.907 20.9807 100.893 21.054C100.893 21.1273 100.9 21.2007 100.915 21.274C100.915 21.7433 100.907 22.2127 100.893 22.682C100.878 23.1513 100.878 23.6207 100.893 24.09C100.907 24.5153 100.907 24.9333 100.893 25.344C100.878 25.74 100.871 26.1433 100.871 26.554C100.871 26.8327 100.871 27.1113 100.871 27.39C100.871 27.654 100.841 27.918 100.783 28.182C100.739 28.3727 100.709 28.5633 100.695 28.754C100.68 28.9447 100.651 29.1427 100.607 29.348C100.548 29.6413 100.445 29.9713 100.299 30.338C100.167 30.6313 100.027 30.9173 99.8807 31.196C99.734 31.46 99.5654 31.7167 99.3747 31.966C99.2867 32.0833 99.184 32.186 99.0667 32.274C98.8907 32.3767 98.7147 32.4793 98.5387 32.582C98.3774 32.6847 98.1867 32.7507 97.9667 32.78Z" fill="#1C1C1C"/>
</svg>
