<svg xmlns="http://www.w3.org/2000/svg" version="1.1" xmlns:xlink="http://www.w3.org/1999/xlink" xmlns:svgjs="http://svgjs.dev/svgjs" width="1000" height="1000"><style>
    #light-icon {
      display: inline;
    }
    #dark-icon {
      display: none;
    }

    @media (prefers-color-scheme: dark) {
      #light-icon {
        display: none;
      }
      #dark-icon {
        display: inline;
      }
    }
  </style><g id="light-icon"><svg xmlns="http://www.w3.org/2000/svg" version="1.1" xmlns:xlink="http://www.w3.org/1999/xlink" xmlns:svgjs="http://svgjs.dev/svgjs" width="1000" height="1000"><g><g transform="matrix(20.833333333333332,0,0,20.833333333333332,0,83.33333333333337)"><svg xmlns="http://www.w3.org/2000/svg" version="1.1" xmlns:xlink="http://www.w3.org/1999/xlink" xmlns:svgjs="http://svgjs.dev/svgjs" width="48" height="40"><svg width="48" height="40" viewBox="0 0 48 40" fill="none" xmlns="http://www.w3.org/2000/svg">
<path fill-rule="evenodd" clip-rule="evenodd" d="M8.08156 17.6255C8.40779 17.6086 8.73623 17.6 9.06668 17.6C14.2892 17.6 19.0107 19.7447 22.3987 23.2013L22.256 23.344C25.92 20.1172 30.8989 18.1333 36.3837 18.1333C37.5554 18.1333 38.7039 18.2239 39.8215 18.3977C39.9391 17.6156 40 16.8149 40 16C40 7.16344 32.8366 0 24 0C15.1634 0 8 7.16344 8 16C8 16.5487 8.02762 17.091 8.08156 17.6255Z" fill="#A93926"></path>
<path fill-rule="evenodd" clip-rule="evenodd" d="M0.00140249 17.1998C-0.0312261 16.5379 0.509786 16 1.1733 16C1.83682 16 2.37124 16.5382 2.40751 17.1999C2.43647 17.7282 2.48443 18.2513 2.55072 18.7688C4.57931 18.0131 6.77476 17.6 9.06668 17.6C14.2892 17.6 19.0107 19.7447 22.3987 23.2013L22.256 23.344C25.92 20.1172 30.8989 18.1333 36.3837 18.1333C39.5642 18.1333 42.5746 18.8004 45.2571 19.9901C45.4274 19.0789 45.5405 18.1475 45.5925 17.2C45.6288 16.5382 46.1632 16 46.8267 16C47.4902 16 48.0312 16.5379 47.9986 17.1998C47.3727 29.8973 36.8675 40 24 40C11.1324 40 0.627287 29.8972 0.00140249 17.1998ZM45.029 21.0587C42.4343 19.8706 39.5002 19.2 36.3837 19.2C25.7757 19.2 17.2807 26.9696 17.0903 36.4739C17.6868 36.6747 18.2948 36.8501 18.9132 36.9991C18.9124 36.9328 18.9119 36.8664 18.9119 36.8C18.9119 27.9634 26.7343 20.8 36.3837 20.8C39.3443 20.8 42.1329 21.4743 44.5764 22.6644C44.7472 22.1378 44.8984 21.6022 45.029 21.0587ZM44.2187 23.6794C41.8977 22.525 39.2312 21.8667 36.3837 21.8667C27.2629 21.8667 19.9991 28.6207 19.9991 36.8C19.9991 36.9446 20.0013 37.0887 20.0058 37.2323C20.6099 37.345 21.2227 37.4326 21.8433 37.4939C21.8304 37.2641 21.8239 37.0328 21.8239 36.8C21.8239 29.4362 28.3426 23.4667 36.3837 23.4667C38.9974 23.4667 41.4502 24.0973 43.5706 25.2015C43.8053 24.7043 44.0217 24.1966 44.2187 23.6794ZM43.0902 26.1567C41.1223 25.1256 38.8357 24.5333 36.3837 24.5333C28.8711 24.5333 22.911 30.0934 22.911 36.8C22.911 37.0599 22.92 37.3182 22.9376 37.5744C23.2896 37.5914 23.6438 37.6 24 37.6C24.2567 37.6 24.5124 37.5955 24.767 37.5867C24.7463 37.3269 24.7358 37.0646 24.7358 36.8C24.7358 30.909 29.9508 26.1333 36.3837 26.1333C38.5247 26.1333 40.5309 26.6623 42.2547 27.5854C42.5508 27.121 42.8296 26.6444 43.0902 26.1567ZM41.6545 28.4773C40.1103 27.6665 38.3137 27.2 36.3837 27.2C30.4793 27.2 25.823 31.5662 25.823 36.8C25.823 37.0426 25.833 37.2833 25.8526 37.5218C26.464 37.47 27.0682 37.3928 27.664 37.2912C27.6533 37.1288 27.6478 36.965 27.6478 36.8C27.6478 32.3817 31.559 28.8 36.3837 28.8C37.9253 28.8 39.3736 29.1657 40.6309 29.8074C40.9888 29.3778 41.3303 28.9341 41.6545 28.4773ZM39.901 30.6395C38.8541 30.1469 37.6606 29.8667 36.3837 29.8667C32.0876 29.8667 28.735 33.0389 28.735 36.8C28.735 36.8935 28.737 36.9866 28.7411 37.0793C29.3593 36.9412 29.9674 36.7766 30.5643 36.5869C30.6864 33.7402 33.2451 31.4667 36.3837 31.4667C37.1884 31.4667 37.955 31.6161 38.6522 31.8864C39.0852 31.4878 39.5018 31.0718 39.901 30.6395ZM37.7136 32.7022C37.2943 32.5925 36.8485 32.5333 36.3837 32.5333C33.9371 32.5333 32.0199 34.1724 31.6954 36.1924C33.8962 35.3551 35.9248 34.1692 37.7136 32.7022ZM15.9974 36.0728C15.8947 32.3333 12.831 29.3333 9.06668 29.3333C8.41651 29.3333 7.78724 29.4228 7.19052 29.5902C7.57855 30.0684 7.98662 30.5298 8.41346 30.9729C8.62754 30.9468 8.84554 30.9333 9.06668 30.9333C11.6886 30.9333 13.8686 32.8253 14.316 35.3185C14.8636 35.5928 15.4244 35.8447 15.9974 36.0728ZM9.49561 32.0213C11.0735 32.1788 12.3981 33.1959 12.9945 34.5976C11.7413 33.8561 10.5694 32.9918 9.49561 32.0213ZM6.49713 28.6883C7.30362 28.4149 8.16784 28.2667 9.06668 28.2667C12.3511 28.2667 15.1733 30.246 16.4054 33.0768C16.5687 32.3381 16.7796 31.6152 17.0351 30.911C15.3109 28.3508 12.3855 26.6667 9.06668 26.6667C7.83624 26.6667 6.65987 26.8982 5.57874 27.3199C5.86777 27.7882 6.1742 28.2446 6.49713 28.6883ZM5.03525 26.3881C6.27901 25.88 7.64014 25.6 9.06668 25.6C12.5008 25.6 15.5558 27.2228 17.5068 29.7434C17.7442 29.2114 18.0076 28.6917 18.2956 28.1856C16.0472 25.62 12.7461 24 9.06668 24C7.38174 24 5.77615 24.3397 4.31466 24.9544C4.53748 25.4423 4.77795 25.9205 5.03525 26.3881ZM3.8957 23.9731C5.48581 23.3035 7.23302 22.9333 9.06668 22.9333C12.9464 22.9333 16.439 24.5903 18.8755 27.2353C19.1722 26.7809 19.4893 26.339 19.8258 25.9107C17.1091 23.089 13.2929 21.3333 9.06668 21.3333C7.04527 21.3333 5.11766 21.735 3.35931 22.4628C3.51981 22.9747 3.69887 23.4784 3.8957 23.9731ZM3.06396 21.4308C4.91756 20.6801 6.94384 20.2667 9.06668 20.2667C13.5523 20.2667 17.6069 22.1126 20.5121 25.0862C20.8639 24.6869 21.2333 24.3012 21.6193 23.93C18.4262 20.6814 13.9817 18.6667 9.06668 18.6667C6.82777 18.6667 4.68651 19.0847 2.71668 19.847C2.81298 20.3821 2.929 20.9102 3.06396 21.4308Z" fill="#1C1C1C"></path>
</svg></svg></g></g></svg></g><g id="dark-icon"><svg xmlns="http://www.w3.org/2000/svg" version="1.1" xmlns:xlink="http://www.w3.org/1999/xlink" xmlns:svgjs="http://svgjs.dev/svgjs" width="1000" height="1000"><g clip-path="url(#SvgjsClipPath1024)"><rect width="1000" height="1000" fill="#ffffff"></rect><g transform="matrix(14.583333333333334,0,0,14.583333333333334,150,208.33333333333331)"><svg xmlns="http://www.w3.org/2000/svg" version="1.1" xmlns:xlink="http://www.w3.org/1999/xlink" xmlns:svgjs="http://svgjs.dev/svgjs" width="48" height="40"><svg width="48" height="40" viewBox="0 0 48 40" fill="none" xmlns="http://www.w3.org/2000/svg">
<path fill-rule="evenodd" clip-rule="evenodd" d="M8.08156 17.6255C8.40779 17.6086 8.73623 17.6 9.06668 17.6C14.2892 17.6 19.0107 19.7447 22.3987 23.2013L22.256 23.344C25.92 20.1172 30.8989 18.1333 36.3837 18.1333C37.5554 18.1333 38.7039 18.2239 39.8215 18.3977C39.9391 17.6156 40 16.8149 40 16C40 7.16344 32.8366 0 24 0C15.1634 0 8 7.16344 8 16C8 16.5487 8.02762 17.091 8.08156 17.6255Z" fill="#A93926"></path>
<path fill-rule="evenodd" clip-rule="evenodd" d="M0.00140249 17.1998C-0.0312261 16.5379 0.509786 16 1.1733 16C1.83682 16 2.37124 16.5382 2.40751 17.1999C2.43647 17.7282 2.48443 18.2513 2.55072 18.7688C4.57931 18.0131 6.77476 17.6 9.06668 17.6C14.2892 17.6 19.0107 19.7447 22.3987 23.2013L22.256 23.344C25.92 20.1172 30.8989 18.1333 36.3837 18.1333C39.5642 18.1333 42.5746 18.8004 45.2571 19.9901C45.4274 19.0789 45.5405 18.1475 45.5925 17.2C45.6288 16.5382 46.1632 16 46.8267 16C47.4902 16 48.0312 16.5379 47.9986 17.1998C47.3727 29.8973 36.8675 40 24 40C11.1324 40 0.627287 29.8972 0.00140249 17.1998ZM45.029 21.0587C42.4343 19.8706 39.5002 19.2 36.3837 19.2C25.7757 19.2 17.2807 26.9696 17.0903 36.4739C17.6868 36.6747 18.2948 36.8501 18.9132 36.9991C18.9124 36.9328 18.9119 36.8664 18.9119 36.8C18.9119 27.9634 26.7343 20.8 36.3837 20.8C39.3443 20.8 42.1329 21.4743 44.5764 22.6644C44.7472 22.1378 44.8984 21.6022 45.029 21.0587ZM44.2187 23.6794C41.8977 22.525 39.2312 21.8667 36.3837 21.8667C27.2629 21.8667 19.9991 28.6207 19.9991 36.8C19.9991 36.9446 20.0013 37.0887 20.0058 37.2323C20.6099 37.345 21.2227 37.4326 21.8433 37.4939C21.8304 37.2641 21.8239 37.0328 21.8239 36.8C21.8239 29.4362 28.3426 23.4667 36.3837 23.4667C38.9974 23.4667 41.4502 24.0973 43.5706 25.2015C43.8053 24.7043 44.0217 24.1966 44.2187 23.6794ZM43.0902 26.1567C41.1223 25.1256 38.8357 24.5333 36.3837 24.5333C28.8711 24.5333 22.911 30.0934 22.911 36.8C22.911 37.0599 22.92 37.3182 22.9376 37.5744C23.2896 37.5914 23.6438 37.6 24 37.6C24.2567 37.6 24.5124 37.5955 24.767 37.5867C24.7463 37.3269 24.7358 37.0646 24.7358 36.8C24.7358 30.909 29.9508 26.1333 36.3837 26.1333C38.5247 26.1333 40.5309 26.6623 42.2547 27.5854C42.5508 27.121 42.8296 26.6444 43.0902 26.1567ZM41.6545 28.4773C40.1103 27.6665 38.3137 27.2 36.3837 27.2C30.4793 27.2 25.823 31.5662 25.823 36.8C25.823 37.0426 25.833 37.2833 25.8526 37.5218C26.464 37.47 27.0682 37.3928 27.664 37.2912C27.6533 37.1288 27.6478 36.965 27.6478 36.8C27.6478 32.3817 31.559 28.8 36.3837 28.8C37.9253 28.8 39.3736 29.1657 40.6309 29.8074C40.9888 29.3778 41.3303 28.9341 41.6545 28.4773ZM39.901 30.6395C38.8541 30.1469 37.6606 29.8667 36.3837 29.8667C32.0876 29.8667 28.735 33.0389 28.735 36.8C28.735 36.8935 28.737 36.9866 28.7411 37.0793C29.3593 36.9412 29.9674 36.7766 30.5643 36.5869C30.6864 33.7402 33.2451 31.4667 36.3837 31.4667C37.1884 31.4667 37.955 31.6161 38.6522 31.8864C39.0852 31.4878 39.5018 31.0718 39.901 30.6395ZM37.7136 32.7022C37.2943 32.5925 36.8485 32.5333 36.3837 32.5333C33.9371 32.5333 32.0199 34.1724 31.6954 36.1924C33.8962 35.3551 35.9248 34.1692 37.7136 32.7022ZM15.9974 36.0728C15.8947 32.3333 12.831 29.3333 9.06668 29.3333C8.41651 29.3333 7.78724 29.4228 7.19052 29.5902C7.57855 30.0684 7.98662 30.5298 8.41346 30.9729C8.62754 30.9468 8.84554 30.9333 9.06668 30.9333C11.6886 30.9333 13.8686 32.8253 14.316 35.3185C14.8636 35.5928 15.4244 35.8447 15.9974 36.0728ZM9.49561 32.0213C11.0735 32.1788 12.3981 33.1959 12.9945 34.5976C11.7413 33.8561 10.5694 32.9918 9.49561 32.0213ZM6.49713 28.6883C7.30362 28.4149 8.16784 28.2667 9.06668 28.2667C12.3511 28.2667 15.1733 30.246 16.4054 33.0768C16.5687 32.3381 16.7796 31.6152 17.0351 30.911C15.3109 28.3508 12.3855 26.6667 9.06668 26.6667C7.83624 26.6667 6.65987 26.8982 5.57874 27.3199C5.86777 27.7882 6.1742 28.2446 6.49713 28.6883ZM5.03525 26.3881C6.27901 25.88 7.64014 25.6 9.06668 25.6C12.5008 25.6 15.5558 27.2228 17.5068 29.7434C17.7442 29.2114 18.0076 28.6917 18.2956 28.1856C16.0472 25.62 12.7461 24 9.06668 24C7.38174 24 5.77615 24.3397 4.31466 24.9544C4.53748 25.4423 4.77795 25.9205 5.03525 26.3881ZM3.8957 23.9731C5.48581 23.3035 7.23302 22.9333 9.06668 22.9333C12.9464 22.9333 16.439 24.5903 18.8755 27.2353C19.1722 26.7809 19.4893 26.339 19.8258 25.9107C17.1091 23.089 13.2929 21.3333 9.06668 21.3333C7.04527 21.3333 5.11766 21.735 3.35931 22.4628C3.51981 22.9747 3.69887 23.4784 3.8957 23.9731ZM3.06396 21.4308C4.91756 20.6801 6.94384 20.2667 9.06668 20.2667C13.5523 20.2667 17.6069 22.1126 20.5121 25.0862C20.8639 24.6869 21.2333 24.3012 21.6193 23.93C18.4262 20.6814 13.9817 18.6667 9.06668 18.6667C6.82777 18.6667 4.68651 19.0847 2.71668 19.847C2.81298 20.3821 2.929 20.9102 3.06396 21.4308Z" fill="#1C1C1C"></path>
</svg></svg></g></g><defs><clipPath id="SvgjsClipPath1024"><rect width="1000" height="1000" x="0" y="0" rx="500" ry="500"></rect></clipPath></defs></svg></g></svg>