<svg width="30" height="26" viewBox="0 0 30 26" fill="none" xmlns="http://www.w3.org/2000/svg">
<path d="M1 1H7.38596L8.0307 4.57143M10.3333 17.3265H25.5614L29 4.57143H8.0307M10.3333 17.3265L8.0307 4.57143M10.3333 17.3265C7.38596 17.3265 7.38596 20.898 10.3333 20.898C13.2807 20.898 25.5614 20.898 25.5614 20.898" stroke="black" stroke-linecap="round"/>
<path d="M13.2719 23.9592C13.2719 24.8282 12.5984 25.5 11.807 25.5C11.0157 25.5 10.3421 24.8282 10.3421 23.9592C10.3421 23.0902 11.0157 22.4184 11.807 22.4184C12.5984 22.4184 13.2719 23.0902 13.2719 23.9592Z" stroke="black"/>
<path d="M25.0614 23.9592C25.0614 24.8282 24.3879 25.5 23.5965 25.5C22.8051 25.5 22.1316 24.8282 22.1316 23.9592C22.1316 23.0902 22.8051 22.4184 23.5965 22.4184C24.3879 22.4184 25.0614 23.0902 25.0614 23.9592Z" stroke="black"/>
</svg>
